<svg xmlns="http://www.w3.org/2000/svg" data-name="Layer 6" viewBox="0 0 24 24"><path d="M22,17.75h-.6035A2.2376,2.2376,0,0,0,22.25,16V6A2.2528,2.2528,0,0,0,20,3.75H6a.25.25,0,0,0,0,.5H20A1.7522,1.7522,0,0,1,21.75,6V16A1.7522,1.7522,0,0,1,20,17.75H4A1.7522,1.7522,0,0,1,2.25,16V6A1.7522,1.7522,0,0,1,4,4.25H5a.25.25,0,0,0,0-.5H4A2.2528,2.2528,0,0,0,1.75,6V16a2.2376,2.2376,0,0,0,.8535,1.75H2a1.25,1.25,0,0,0,0,2.5H7a.25.25,0,0,0,0-.5H2a.75.75,0,0,1,0-1.5H9.8006A1.2336,1.2336,0,0,0,11,19.25h2a1.2337,1.2337,0,0,0,1.2-1H22a.75.75,0,0,1,0,1.5H8a.25.25,0,0,0,0,.5H22a1.25,1.25,0,0,0,0-2.5Zm-9,1H11a.7452.7452,0,0,1-.6993-.5h3.3986A.7452.7452,0,0,1,13,18.75Z"/><path d="M8 10.25H18a.25.25 0 000-.5h-.75V9a.25.25 0 00-.5 0v.75h-1.5V6.5a.25.25 0 01.25-.25h1a.25.25 0 01.25.25V8a.25.25 0 00.5 0V6.5a.7511.7511 0 00-.75-.75h-1a.7511.7511 0 00-.75.75V9.75h-.5V8.5a.7511.7511 0 00-.75-.75h-1a.7511.7511 0 00-.75.75V9.75h-.5V6.5a.7511.7511 0 00-.75-.75h-1a.7511.7511 0 00-.75.75V9.75H8a.25.25 0 000 .5zM12.25 8.5a.25.25 0 01.25-.25h1a.25.25 0 01.25.25V9.75h-1.5zm-3-2a.25.25 0 01.25-.25h1a.25.25 0 01.25.25V9.75H9.25zM7.8232 15.1768a.25.25 0 00.3536 0L9.5 13.8535l.7373.7373a2.2657 2.2657 0 001.5908.6592h1.3438a2.2656 2.2656 0 001.5908-.6592l.8281-.8281a1.7625 1.7625 0 011.2373-.5127h.3438a2.2612 2.2612 0 001.3087-.4285 2.2274 2.2274 0 001.5194.6.25.25 0 000-.5 1.73 1.73 0 01-1.1376-.43l1.3144-1.3143a.25.25 0 00-.3536-.3536L18.5 12.1464l-.7374-.7377a2.24 2.24 0 00-1.5918-.6587H14.8281a2.2657 2.2657 0 00-1.5908.6592l-.8281.8276a1.7409 1.7409 0 01-1.2383.5132h-.3428a2.2616 2.2616 0 00-1.3088.4286A2.2321 2.2321 0 008 12.5786a.25.25 0 000 .5 1.7347 1.7347 0 011.1375.43L7.8232 14.8232A.25.25 0 007.8232 15.1768zM11.1709 13.25a2.2381 2.2381 0 001.5918-.6592l.8281-.8281a1.7625 1.7625 0 011.2373-.5127h1.3428a1.7425 1.7425 0 011.2383.5127l.7066.7067a1.7587 1.7587 0 01-.9439.2806h-.3438a2.2657 2.2657 0 00-1.5908.6592l-.8281.8281a1.7625 1.7625 0 01-1.2373.5127H11.8281a1.7625 1.7625 0 01-1.2373-.5127l-.7066-.7067a1.7587 1.7587 0 01.9439-.2806zM7 15.25A.25.25 0 007.25 15V6a.25.25 0 00-.5 0v9A.25.25 0 007 15.25zM3.75 8A.25.25 0 004 8.25H6a.25.25 0 000-.5H4A.25.25 0 003.75 8zM6 9.75H4a.25.25 0 000 .5H6a.25.25 0 000-.5zM6 11.75H4a.25.25 0 000 .5H6a.25.25 0 000-.5z"/><path d="M2.75,6v9a1.2465,1.2465,0,0,0,1.24,1.25H20.01A1.2465,1.2465,0,0,0,21.25,15V6a1.2465,1.2465,0,0,0-1.24-1.25H3.99A1.2465,1.2465,0,0,0,2.75,6Zm18,0v9a.7459.7459,0,0,1-.74.75H3.99A.7459.7459,0,0,1,3.25,15V6a.7459.7459,0,0,1,.74-.75H20.01A.7459.7459,0,0,1,20.75,6Z"/></svg>