<svg xmlns="http://www.w3.org/2000/svg" viewBox="0 0 128 128"><circle cx="64" cy="64" r="64" fill="#7ccedc"/><path fill="#fff" d="M14.5 28.6H111v59.9H14.5z"/><path fill="#f2f2f2" d="M124.7 96c0 5-4.1 9.1-9.1 9.1H9.9c-2.5 0-4.8-1-6.4-2.7C1.9 100.8.8 98.5.8 96h123.9z"/><path fill="#464e58" d="M116.7 97.5V25.1c0-1.3-1-2.3-2.3-2.3H11.1c-1.3 0-2.3 1-2.3 2.3v72.3h107.9z"/><path fill="#fff" d="M14.5 28.6H111v59.9H14.5z"/><path fill="#f2f2f2" d="M124.7 96c0 5-4.1 9.1-9.1 9.1H9.9c-2.5 0-4.8-1-6.4-2.7C1.9 100.8.8 98.5.8 96h123.9z"/><path fill="#dad9d8" d="M74.4 59.9H21.8V33.6h.6v25.6h52z"/><path fill="#dad9d8" d="M20.4 35.5h1.7v.6h-1.7zM20.4 38.9h1.7v.6h-1.7zM20.4 42.4h1.7v.6h-1.7zM20.4 45.9h1.7v.6h-1.7zM20.4 49.3h1.7v.6h-1.7zM20.4 52.8h1.7v.6h-1.7zM20.4 56.3h1.7v.6h-1.7zM42.6 59.6h.6v1.7h-.6zM39.1 59.6h.6v1.7h-.6zM46 59.6h.6v1.7H46zM49.5 59.6h.6v1.7h-.6zM53 59.6h.6v1.7H53zM56.4 59.6h.6v1.7h-.6zM59.9 59.6h.6v1.7h-.6zM63.4 59.6h.6v1.7h-.6zM66.8 59.6h.6v1.7h-.6zM70.3 59.6h.6v1.7h-.6zM35.7 59.6h.6v1.7h-.6zM32.2 59.6h.6v1.7h-.6zM28.7 59.6h.6v1.7h-.6zM25.3 59.6h.6v1.7h-.6z"/><path fill="#dad9d8" d="M74.4 59.2v.7h-3.5v1.4h-.6v-1.4h-2.8v1.4h-.7v-1.4H64v1.4h-.6v-1.4h-2.8v1.4h-.7v-1.4h-2.8v1.4h-.7v-1.4h-2.8v1.4H53v-1.4h-2.8v1.4h-.7v-1.4h-2.8v1.4h-.6v-1.4h-2.9v1.4h-.6v-1.4h-2.8v1.4h-.7v-1.4h-2.8v1.4h-.6v-1.4h-2.9v1.4h-.6v-1.4h-2.8v1.4h-.7v-1.4h-2.8v1.4h-.6v-1.4h-3.5v-3h-1.4v-.6h1.4v-2.9h-1.4v-.6h1.4V50h-1.4v-.7h1.4v-2.8h-1.4v-.6h1.4V43h-1.4v-.6h1.4v-2.8h-1.4v-.7h1.4v-2.8h-1.4v-.6h1.4v-1.9h.6v25.6z"/><path fill="#dad9d8" d="m27 55.3-.5-.1c0-.1 2.1-10.6 12.4-12 6-.8 8 1.3 9.6 3 1.2 1.3 2.2 2.3 4.5 2 2.2-.3 3.2-1.9 4.4-4.1 1.9-3.2 4.2-7.1 11.7-8l.1.5c-7.3.9-9.5 4.7-11.3 7.8-1.3 2.2-2.3 4-4.8 4.3-2.5.3-3.7-.9-4.9-2.2-1.6-1.7-3.5-3.7-9.2-2.9C29 45 27 55.2 27 55.3z"/><circle cx="26.8" cy="55.2" r="1" fill="#f37c5a"/><circle cx="26.8" cy="55.2" r=".4" fill="#da664b"/><circle cx="32.1" cy="46.3" r="1" fill="#7ccedc"/><circle cx="32.1" cy="46.3" r=".4" fill="#50c6cc"/><circle cx="40.7" cy="43.3" r="1" fill="#fdda7f"/><circle cx="40.7" cy="43.3" r=".4" fill="#f7bb52"/><circle cx="48.3" cy="46.2" r="1" fill="#f37c5a"/><circle cx="48.3" cy="46.2" r=".4" fill="#da664b"/><circle cx="69.1" cy="36.4" r="1" fill="#f37c5a"/><circle cx="69.1" cy="36.4" r=".4" fill="#da664b"/><circle cx="56.9" cy="45.6" r="1" fill="#7ccedc"/><circle cx="56.9" cy="45.6" r=".4" fill="#50c6cc"/><circle cx="61.7" cy="39.3" r="1" fill="#464e58"/><circle cx="61.7" cy="39.3" r=".4" fill="#25313b"/><path fill="#dad9d8" d="M34.8 51.3c-4.1-.1-6.9-2.1-8.6-3.8l.3-.3c1.6 1.6 4.4 3.6 8.2 3.6h.1c2.7 0 4.6-2.1 6.6-4.2 2.3-2.5 4.8-5.2 9-5.6 3.9-.3 6.9.7 9.6 1.6 4.1 1.4 7.3 2.4 11.5-2.1l.4.3c-4.3 4.7-7.9 3.6-12 2.2-2.6-.9-5.6-1.9-9.4-1.6-4 .3-6.4 2.9-8.7 5.4-2.1 2.4-4 4.5-7 4.5z"/><path fill="#dad9d8" d="m27 55.3-.5-.1c0-.1 2.1-10.6 12.4-12 6-.8 8 1.3 9.6 3 1.2 1.3 2.2 2.3 4.5 2 2.2-.3 3.2-1.9 4.4-4.1 1.9-3.2 4.2-7.1 11.7-8l.1.5c-7.3.9-9.5 4.7-11.3 7.8-1.3 2.2-2.3 4-4.8 4.3-2.5.3-3.7-.9-4.9-2.2-1.6-1.7-3.5-3.7-9.2-2.9C29 45 27 55.2 27 55.3z"/><circle cx="26.8" cy="55.2" r="1" fill="#f37c5a"/><circle cx="26.8" cy="55.2" r=".4" fill="#da664b"/><circle cx="32.1" cy="46.3" r="1" fill="#7ccedc"/><circle cx="32.1" cy="46.3" r=".4" fill="#50c6cc"/><circle cx="40.7" cy="43.3" r="1" fill="#fdda7f"/><circle cx="40.7" cy="43.3" r=".4" fill="#f7bb52"/><circle cx="48.3" cy="46.2" r="1" fill="#f37c5a"/><circle cx="48.3" cy="46.2" r=".4" fill="#da664b"/><circle cx="69.1" cy="36.4" r="1" fill="#f37c5a"/><circle cx="69.1" cy="36.4" r=".4" fill="#da664b"/><circle cx="56.9" cy="45.6" r="1" fill="#7ccedc"/><circle cx="56.9" cy="45.6" r=".4" fill="#50c6cc"/><circle cx="61.7" cy="39.3" r="1" fill="#464e58"/><circle cx="61.7" cy="39.3" r=".4" fill="#25313b"/><path fill="#dad9d8" d="M34.8 51.3c-4.1-.1-6.9-2.1-8.6-3.8l.3-.3c1.6 1.6 4.4 3.6 8.2 3.6h.1c2.7 0 4.6-2.1 6.6-4.2 2.3-2.5 4.8-5.2 9-5.6 3.9-.3 6.9.7 9.6 1.6 4.1 1.4 7.3 2.4 11.5-2.1l.4.3c-4.3 4.7-7.9 3.6-12 2.2-2.6-.9-5.6-1.9-9.4-1.6-4 .3-6.4 2.9-8.7 5.4-2.1 2.4-4 4.5-7 4.5z"/><path fill="#f37c5a" d="M77.4 49.8h1.5v11.5h-1.5z"/><path fill="#da664b" d="M80 53.8h1.5v7.4H80z"/><path fill="#7ccedc" d="M82.6 42.8h1.5v18.5h-1.5z"/><path fill="#50c6cc" d="M85.2 51h1.5v10.3h-1.5z"/><path fill="#464e58" d="M87.8 45.5h1.5v15.8h-1.5z"/><path fill="#25313b" d="M90.4 58.9h1.5v2.4h-1.5z"/><path fill="#fdda7f" d="M93.1 53.2h1.5v8.1h-1.5z"/><path fill="#f7bb52" d="M95.7 48.9h1.5v12.3h-1.5z"/><path fill="#f37c5a" d="M98.3 40.9h1.5v20.3h-1.5z"/><path fill="#da664b" d="M100.9 54.4h1.5v6.9h-1.5z"/><path fill="#7ccedc" d="M103.5 44.1h1.5v17.2h-1.5z"/><path fill="#50c6cc" d="M106.1 36.9h1.5v24.4h-1.5z"/><path fill="#464e58" d="m49.3 79.5-.4-.6 9.6-5 8.2 3.3L80 73.7l5.9 3.4 13.2-5.9.3.7L85.9 78l-6-3.5L66.6 78l-8.1-3.2z"/><circle cx="49.3" cy="79.1" r="1.6" fill="#f37c5a"/><circle cx="49.3" cy="79.1" r=".7" fill="#da664b"/><circle cx="58.5" cy="74.5" r="1.6" fill="#fdda7f"/><circle cx="58.5" cy="74.5" r=".7" fill="#f7bb52"/><circle cx="66.7" cy="77.6" r="1.6" fill="#f37c5a"/><circle cx="66.7" cy="77.6" r=".7" fill="#da664b"/><circle cx="79.8" cy="74.1" r="1.6" fill="#7ccedc"/><circle cx="79.8" cy="74.1" r=".7" fill="#50c6cc"/><circle cx="85.9" cy="77.5" r="1.6" fill="#fdda7f"/><circle cx="85.9" cy="77.5" r=".7" fill="#f7bb52"/><circle cx="99.3" cy="71.5" r="1.6" fill="#f37c5a"/><circle cx="99.3" cy="71.5" r=".7" fill="#da664b"/><path fill="#f37c5a" d="M31.9 72.5c.6-.5 1.5-.8 2.3-.8.9 0 1.7.3 2.3.8l4.1-4.1c-1.7-1.6-4-2.5-6.5-2.5s-4.8 1-6.5 2.5l4.3 4.1z"/><path fill="#fdda7f" d="M41.3 68.9 37.1 73c.4.5.7 1.2.8 2h5.9c-.1-2.4-1-4.5-2.5-6.1z"/><path fill="#464e58" d="M33.8 79.1c-1.9-.2-3.4-1.8-3.4-3.7 0-.9.3-1.7.9-2.4l-4.1-4.1c-1.6 1.7-2.5 4-2.5 6.5 0 5.2 4.1 9.4 9.2 9.6v-5.9z"/><path fill="#7ccedc" d="M37.9 75.7c-.2 1.8-1.6 3.1-3.3 3.3v5.9c5-.2 9-4.2 9.2-9.2h-5.9z"/><path fill="#da664b" d="M34.2 71.6c.9 0 1.7.3 2.3.8l.9-.9c-.9-.7-2-1.2-3.2-1.2-1.2 0-2.4.5-3.2 1.2l.9.9c.6-.5 1.4-.8 2.3-.8z"/><path fill="#f7bb52" d="M37.9 75h1.2c-.1-1.1-.5-2.1-1.2-2.8l-.8.8c.5.6.7 1.2.8 2z"/><path fill="#25313b" d="M30.5 75.4c0-.9.3-1.7.9-2.4l-.9-.9c-.7.9-1.2 2-1.2 3.2 0 2.6 2 4.7 4.6 4.9V79c-2-.1-3.4-1.7-3.4-3.6z"/><path fill="#50c6cc" d="M39.2 75.7H38c-.2 1.8-1.6 3.1-3.3 3.3v1.2c2.3-.1 4.3-2 4.5-4.5z"/><path fill="#464e58" d="M73.4 99.9H52.1l-1.5-4.1h24.3z"/></svg>